# Blender 4.5.0
# www.blender.org
mtllib pawn3D.mtl
o Cube
v 0.109481 1.000000 -0.109481
v 1.000000 0.109481 -1.000000
v 0.109481 1.000000 0.109481
v 1.000000 0.109481 1.000000
v -0.109481 1.000000 -0.109481
v -1.000000 0.109481 -1.000000
v -0.109481 1.000000 0.109481
v -1.000000 0.109481 1.000000
v 1.000000 -0.448468 -1.000000
v 0.448468 -1.000000 -0.448468
v 0.448468 -1.000000 0.448468
v 1.000000 -0.448468 1.000000
v -1.000000 -0.448468 -1.000000
v -0.448468 -1.000000 -0.448468
v -0.448468 -1.000000 0.448468
v -1.000000 -0.448468 1.000000
vn -0.0000 0.7071 0.7071
vn 0.7071 0.7071 -0.0000
vn -0.7071 0.7071 -0.0000
vn -0.0000 0.7071 -0.7071
vn -0.0000 1.0000 -0.0000
vn -0.7071 -0.7071 -0.0000
vn -0.0000 -0.7071 -0.7071
vn -0.0000 -0.7071 0.7071
vn 0.7071 -0.7071 -0.0000
vn -0.0000 -0.0000 -1.0000
vn -0.0000 -1.0000 -0.0000
vn 1.0000 -0.0000 -0.0000
vn -0.0000 -0.0000 1.0000
vn -1.0000 -0.0000 -0.0000
vt 0.736315 0.638685
vt 0.763685 0.638685
vt 0.875000 0.750000
vt 0.535190 0.750000
vt 0.736315 0.611315
vt 0.535190 0.500000
vt 0.763685 0.611315
vt 0.875000 0.500000
vt 0.193942 0.568942
vt 0.193942 0.681058
vt 0.125000 0.750000
vt 0.125000 0.500000
vt 0.306059 0.568942
vt 0.434601 0.500000
vt 0.306058 0.681059
vt 0.434601 0.750000
vt 0.443942 0.250000
vt 0.513685 0.250000
vt 0.513685 1.000000
vt 0.443942 1.000000
vt 0.443942 0.000000
vt 0.513685 0.000000
s 0
usemtl Material
f 3/1/1 7/2/1 8/3/1 4/4/1
f 1/5/2 3/1/2 4/4/2 2/6/2
f 7/2/3 5/7/3 6/8/3 8/3/3
f 5/7/4 1/5/4 2/6/4 6/8/4
f 1/5/5 5/7/5 7/2/5 3/1/5
f 14/9/6 15/10/6 16/11/6 13/12/6
f 10/13/7 14/9/7 13/12/7 9/14/7
f 15/10/8 11/15/8 12/16/8 16/11/8
f 11/15/9 10/13/9 9/14/9 12/16/9
f 13/17/10 6/18/10 2/6/10 9/14/10
f 14/9/11 10/13/11 11/15/11 15/10/11
f 9/14/12 2/6/12 4/4/12 12/16/12
f 12/16/13 4/4/13 8/19/13 16/20/13
f 16/21/14 8/22/14 6/18/14 13/17/14
